# File created by Blade
# Date/Time:  Wed Jan 21 19:19:27 2015
#---------------------------------------------------------
:version 1.10
:name HOM
:units
  mass 1.0
  length 1.000000
  angle deg
:documentation
     Acclaim Skeleton File
:root
   axis xyz
   order TX TY TZ RX RY RZ
   position 0.000000 0.000000 0.000000
   orientation 0 0 0
:bonedata
   begin
      id 1
      name RightUpLeg_dum
      direction -1.000000 0.000000 0.000000
      length 3.693983
      axis 0.0 0.0 0.0 xyz
   end
   begin
      id 2
      name LeftUpLeg_dum
      direction 1.000000 0.000000 0.000000
      length 3.693983
      axis 0.0 0.0 0.0 xyz
   end
   begin
      id 3
      name Spine_dum
      direction 0.000000 1.000000 0.000000
      length 2.392956
      axis 0.0 0.0 0.0 xyz
   end
   begin
      id 4
      name RightUpLeg
      direction 0.000000 -1.000000 0.000000
      length 15.795667
      axis 0.0 0.0 0.0 xyz
      dof rx ry rz
   end
   begin
      id 5
      name RightLeg
      direction 0.000000 -1.000000 0.000000
      length 14.766989
      axis 0.0 0.0 0.0 xyz
      dof rx ry rz
   end
   begin
      id 6
      name RightFoot
      direction 0.000000 -0.258819 0.965926
      length 4.962790
      axis 15.0 0.0 0.0 xyz
      dof rx ry rz
   end
   begin
      id 7
      name RightToeBase
      direction 0.000000 0.000000 1.000000
      length 2.952750
      axis 0.0 0.0 0.0 xyz
      dof rx ry rz
   end
   begin
      id 8
      name LeftUpLeg
      direction 0.000000 -1.000000 0.000000
      length 15.795667
      axis 0.0 0.0 0.0 xyz
      dof rx ry rz
   end
   begin
      id 9
      name LeftLeg
      direction 0.000000 -1.000000 0.000000
      length 14.766989
      axis 0.0 0.0 0.0 xyz
      dof rx ry rz
   end
   begin
      id 10
      name LeftFoot
      direction 0.000000 -0.258819 0.965926
      length 4.962790
      axis 15.0 0.0 0.0 xyz
      dof rx ry rz
   end
   begin
      id 11
      name LeftToeBase
      direction 0.000000 0.000000 1.000000
      length 2.952750
      axis 0.0 0.0 0.0 xyz
      dof rx ry rz
   end
   begin
      id 12
      name Spine
      direction 0.000000 1.000000 0.000000
      length 0.000000
      axis 0.0 0.0 0.0 xyz
      dof rx ry rz
   end
   begin
      id 13
      name Spine_dum1
      direction 0.000000 1.000000 0.000000
      length 13.207411
      axis 0.0 0.0 0.0 xyz
   end
   begin
      id 14
      name Spine_dum2
      direction 0.000000 1.000000 0.000000
      length 13.207411
      axis 0.0 0.0 0.0 xyz
   end
   begin
      id 15
      name Spine_dum3
      direction 0.000000 1.000000 0.000000
      length 19.250100
      axis 0.0 0.0 0.0 xyz
   end
   begin
      id 16
      name RightShoulder
      direction -1.000000 0.000000 0.000000
      length 8.140465
      axis 0.0 0.0 90.0 xyz
      dof rx ry rz
   end
   begin
      id 17
      name RightArm
      direction -1.000000 0.000000 0.000000
      length 10.649840
      axis 0.0 0.0 90.0 xyz
      dof rx ry rz
   end
   begin
      id 18
      name RightForeArm
      direction -1.000000 0.000000 0.000000
      length 8.304624
      axis 0.0 0.0 90.0 xyz
      dof ry rz rx
   end
   begin
      id 19
      name RightHand
      direction -1.000000 0.000000 0.000000
      length 0.000000
      axis 0.0 0.0 90.0 xyz
      dof rx ry rz
   end
   begin
      id 20
      name RightHand_dum1
      direction -1.000000 0.000000 0.000000
      length 3.937000
      axis 0.0 0.0 90.0 xyz
   end
   begin
      id 21
      name RightHand_dum2
      direction 0.000000 0.000000 0.000000
      length 0.000000
      axis 0.0 0.0 90.0 xyz
   end
   begin
      id 22
      name RightHandThumb1
      direction 0.000000 0.000000 1.000000
      length 3.937000
      axis 0.0 0.0 90.0 xyz
      dof rx rz ry
   end
   begin
      id 23
      name LeftShoulder
      direction 1.000000 0.000000 0.000000
      length 8.140465
      axis 0.0 0.0 -90.0 xyz
      dof rx ry rz
   end
   begin
      id 24
      name LeftArm
      direction 1.000000 0.000000 0.000000
      length 10.649840
      axis 0.0 0.0 -90.0 xyz
      dof rx ry rz
   end
   begin
      id 25
      name LeftForeArm
      direction 1.000000 0.000000 0.000000
      length 8.304624
      axis 0.0 0.0 -90.0 xyz
      dof ry rz rx
   end
   begin
      id 26
      name LeftHand
      direction 1.000000 0.000000 0.000000
      length 0.000000
      axis 0.0 0.0 -90.0 xyz
      dof rx ry rz
   end
   begin
      id 27
      name LeftHand_dum1
      direction 1.000000 0.000000 0.000000
      length 3.937000
      axis 0.0 0.0 -90.0 xyz
   end
   begin
      id 28
      name LeftHand_dum2
      direction 0.000000 0.000000 0.000000
      length 0.000000
      axis 0.0 0.0 -90.0 xyz
   end
   begin
      id 29
      name LeftHandThumb1
      direction 0.000000 0.000000 1.000000
      length 3.937000
      axis 0.0 0.0 -90.0 xyz
      dof rx rz ry
   end
   begin
      id 30
      name Head
      direction 0.000000 1.000000 0.000000
      length 4.527550
      axis 0.0 0.0 0.0 xyz
      dof rx ry rz
   end
:hierarchy
   begin
      root RightUpLeg_dum LeftUpLeg_dum Spine_dum
      RightUpLeg_dum RightUpLeg
      LeftUpLeg_dum LeftUpLeg
      Spine_dum Spine
      RightUpLeg RightLeg
      RightLeg RightFoot
      RightFoot RightToeBase
      LeftUpLeg LeftLeg
      LeftLeg LeftFoot
      LeftFoot LeftToeBase
      Spine Spine_dum1 Spine_dum2 Spine_dum3
      Spine_dum1 RightShoulder
      Spine_dum2 LeftShoulder
      Spine_dum3 Head
      RightShoulder RightArm
      RightArm RightForeArm
      RightForeArm RightHand
      RightHand RightHand_dum1 RightHand_dum2
      RightHand_dum2 RightHandThumb1
      LeftShoulder LeftArm
      LeftArm LeftForeArm
      LeftForeArm LeftHand
      LeftHand LeftHand_dum1 LeftHand_dum2
      LeftHand_dum2 LeftHandThumb1
   end

# File created by Blade
# Date/Time:  Wed Jan 21 19:19:18 2015
# Frame Rate: 120.000 fps
#------------------------------------------------------
:FULLY-SPECIFIED
:DEGREES
611
root -1.669012 14.175552 -2.123447 42.406376 -16.045178 22.488728
RightUpLeg -165.212235 -64.159308 25.340497
RightLeg 109.453043 -0.000000 -0.000000
RightFoot -16.566916 21.129021 19.996036
RightToeBase 22.440215 -0.000000 -0.000000
LeftUpLeg -28.135763 25.337715 28.490483
LeftLeg 14.937871 -0.000000 -0.000000
LeftFoot -27.899431 5.281566 -17.582280
LeftToeBase 6.275640 -0.000000 -0.000000
Spine -37.403418 12.457335 33.852149
RightShoulder -17.190434 18.580086 -17.109247
RightArm -13.466351 -7.019617 51.324860
RightForeArm -25.730403 -0.000000 51.071366
RightHand 38.212874 0.000000 -54.521878
RightHandThumb1 -24.326973 -0.000000 -32.862282
LeftShoulder -22.242212 -24.632631 71.512755
LeftArm 74.467285 -45.954050 -15.748627
LeftForeArm 11.762449 -0.000000 14.000858
LeftHand -18.989503 -0.000000 13.561533
LeftHandThumb1 -26.253704 0.000000 33.147579
Head -56.766430 8.740952 47.487024
612
root -1.670430 14.170859 -2.123032 42.409167 -16.030852 22.472260
RightUpLeg -165.207615 -64.167472 25.344324
RightLeg 109.471797 -0.000000 -0.000000
RightFoot -16.589720 21.121951 19.961431
RightToeBase 22.441837 -0.000000 -0.000000
LeftUpLeg -28.123800 25.425108 28.487140
LeftLeg 14.892795 -0.000000 -0.000000
LeftFoot -27.867636 5.184478 -17.600854
LeftToeBase 6.272540 -0.000000 -0.000000
Spine -37.402832 12.451167 33.860035
RightShoulder -17.191639 18.590155 -17.106215
RightArm -13.484775 -6.949354 51.341859
RightForeArm -25.762443 -0.000000 51.067727
RightHand 38.243700 -0.000000 -54.602457
RightHandThumb1 -24.326973 -0.000000 -32.862282
LeftShoulder -22.228623 -24.635466 71.513860
LeftArm 74.478701 -45.966992 -15.765685
LeftForeArm 11.810792 0.000000 14.047939
LeftHand -19.038280 -0.000000 13.571929
LeftHandThumb1 -26.253704 0.000000 33.147579
Head -56.758248 8.751856 47.528093
613
root -1.672013 14.166656 -2.122815 42.413253 -16.004750 22.459620
RightUpLeg -165.212955 -64.189882 25.363133
RightLeg 109.489532 -0.000000 -0.000000
RightFoot -16.584692 21.144766 19.997706
RightToeBase 22.443311 -0.000000 -0.000000
LeftUpLeg -28.112245 25.460339 28.504901
LeftLeg 14.849614 -0.000000 -0.000000
LeftFoot -27.853280 5.106668 -17.643350
LeftToeBase 6.262519 -0.000000 -0.000000
Spine -37.409602 12.449326 33.864838
RightShoulder -17.199690 18.599545 -17.114943
RightArm -13.521463 -6.904993 51.360220
RightForeArm -25.826720 -0.000000 51.076363
RightHand 38.216913 -0.000000 -54.656876
RightHandThumb1 -24.326973 -0.000000 -32.862282
LeftShoulder -22.215258 -24.652322 71.505357
LeftArm 74.541053 -45.985113 -15.828872
LeftForeArm 11.890135 -0.000000 14.075320
LeftHand -19.058292 -0.000000 13.557990
LeftHandThumb1 -26.253704 0.000000 33.147579
Head -56.769395 8.767885 47.561578
614
root -1.674286 14.162921 -2.121972 42.421550 -15.971123 22.438150
RightUpLeg -165.215299 -64.208071 25.395664
RightLeg 109.508931 -0.000000 -0.000000
RightFoot -16.605634 21.143767 20.021252
RightToeBase 22.483173 -0.000000 -0.000000
LeftUpLeg -28.113219 25.509218 28.525514
LeftLeg 14.822563 -0.000000 -0.000000
LeftFoot -27.841966 5.052360 -17.606160
LeftToeBase 6.309340 -0.000000 -0.000000
Spine -37.419890 12.448662 33.879849
RightShoulder -17.200154 18.577198 -17.111437
RightArm -13.540262 -6.874319 51.368722
RightForeArm -25.838762 -0.000000 51.090054
RightHand 38.169741 0.000000 -54.687753
RightHandThumb1 -24.326973 -0.000000 -32.862282
LeftShoulder -22.234349 -24.663607 71.520955
LeftArm 74.686489 -45.992640 -16.025654
LeftForeArm 12.011632 -0.000000 14.154506
LeftHand -19.114978 -0.000000 13.515093
LeftHandThumb1 -26.253704 0.000000 33.147579
Head -56.777181 8.801042 47.580813
615
root -1.676617 14.159737 -2.122345 42.433350 -15.950509 22.415986
RightUpLeg -165.190376 -64.219035 25.385972
RightLeg 109.527578 -0.000000 -0.000000
RightFoot -16.603042 21.139630 20.038729
RightToeBase 22.431488 -0.000000 -0.000000
LeftUpLeg -28.115809 25.546257 28.546069
LeftLeg 14.807389 -0.000000 -0.000000
LeftFoot -27.834684 5.024592 -17.607452
LeftToeBase 6.271326 -0.000000 -0.000000
Spine -37.421385 12.463593 33.886013
RightShoulder -17.206073 18.534738 -17.094649
RightArm -13.538661 -6.843084 51.363265
RightForeArm -25.841806 -0.000000 51.111827
RightHand 38.127207 -0.000000 -54.702124
RightHandThumb1 -24.326973 -0.000000 -32.862282
LeftShoulder -22.234028 -24.677592 71.497335
LeftArm 74.820193 -46.037039 -16.177859
LeftForeArm 12.008993 0.000000 14.251131
LeftHand -19.139339 -0.000000 13.424663
LeftHandThumb1 -26.253704 0.000000 33.147579
Head -56.800624 8.836945 47.601504
616
root -1.678959 14.156953 -2.122514 42.450009 -15.922286 22.405414
RightUpLeg -165.190259 -64.237466 25.399068
RightLeg 109.537699 -0.000000 -0.000000
RightFoot -16.608024 21.107008 20.003356
RightToeBase 22.343161 -0.000000 -0.000000
LeftUpLeg -28.135424 25.545998 28.566257
LeftLeg 14.797339 -0.000000 -0.000000
LeftFoot -27.798653 5.125319 -17.459703
LeftToeBase 6.130621 -0.000000 -0.000000
Spine -37.439030 12.461717 33.892648
RightShoulder -17.196989 18.519323 -17.078006
RightArm -13.560671 -6.832422 51.345079
RightForeArm -25.818197 -0.000000 51.134904
RightHand 38.197469 0.000000 -54.684384
RightHandThumb1 -24.326973 -0.000000 -32.862282
LeftShoulder -22.244873 -24.668955 71.500619
LeftArm 74.917053 -46.045305 -16.294691
LeftForeArm 12.038021 -0.000000 14.346296
LeftHand -19.210113 0.000000 13.525412
LeftHandThumb1 -26.253704 0.000000 33.147579
Head -56.802972 8.878712 47.648828
617
root -1.680718 14.154915 -2.123799 42.468208 -15.890212 22.396197
RightUpLeg -165.175678 -64.257672 25.397944
RightLeg 109.561333 -0.000000 -0.000000
RightFoot -16.642683 21.120301 20.071958
RightToeBase 22.399279 -0.000000 -0.000000
LeftUpLeg -28.164857 25.497429 28.606791
LeftLeg 14.825327 -0.000000 -0.000000
LeftFoot -27.876098 5.113959 -17.549168
LeftToeBase 6.299129 -0.000000 -0.000000
Spine -37.454927 12.458428 33.903119
RightShoulder -17.188589 18.458011 -17.044648
RightArm -13.537752 -6.802089 51.320409
RightForeArm -25.792909 -0.000000 51.172895
RightHand 38.211719 -0.000000 -54.633100
RightHandThumb1 -24.326973 -0.000000 -32.862282
LeftShoulder -22.258860 -24.690361 71.496213
LeftArm 75.022235 -46.051122 -16.415002
LeftForeArm 11.999462 -0.000000 14.458029
LeftHand -19.199639 -0.000000 13.494412
LeftHandThumb1 -26.253704 0.000000 33.147579
Head -56.809000 8.924884 47.682174
618
root -1.684383 14.152441 -2.125179 42.494924 -15.866251 22.374886
RightUpLeg -165.172141 -64.269130 25.406396
RightLeg 109.575818 -0.000000 -0.000000
RightFoot -16.631096 21.132864 20.142475
RightToeBase 22.465660 -0.000000 -0.000000
LeftUpLeg -28.194141 25.477383 28.649551
LeftLeg 14.852168 -0.000000 -0.000000
LeftFoot -27.890380 5.155922 -17.532581
LeftToeBase 6.327495 -0.000000 -0.000000
Spine -37.469595 12.473195 33.907893
RightShoulder -17.219765 18.463881 -17.033568
RightArm -13.548191 -6.842734 51.304921
RightForeArm -25.773686 0.000000 51.201808
RightHand 38.176646 -0.000000 -54.574617
RightHandThumb1 -24.326973 -0.000000 -32.862282
LeftShoulder -22.273503 -24.670307 71.488610
LeftArm 75.082586 -46.072648 -16.447371
LeftForeArm 11.981393 -0.000000 14.552598
LeftHand -19.206126 -0.000000 13.557576
LeftHandThumb1 -26.253704 0.000000 33.147579
Head -56.809807 8.988832 47.695790
619
root -1.687515 14.150103 -2.125834 42.507659 -15.846555 22.360674
RightUpLeg -165.136541 -64.277966 25.380155
RightLeg 109.597625 -0.000000 -0.000000
RightFoot -16.657555 21.124033 20.149659
RightToeBase 22.433148 -0.000000 -0.000000
LeftUpLeg -28.212858 25.471056 28.675332
LeftLeg 14.868589 -0.000000 -0.000000
LeftFoot -27.889588 5.194505 -17.502244
LeftToeBase 6.293905 -0.000000 -0.000000
Spine -37.475136 12.480312 33.910996
RightShoulder -17.241526 18.450037 -17.013466
RightArm -13.544158 -6.874832 51.279295
RightForeArm -25.723960 -0.000000 51.233457
RightHand 38.174334 -0.000000 -54.554380
RightHandThumb1 -24.326973 -0.000000 -32.862282
LeftShoulder -22.289440 -24.669925 71.501802
LeftArm 75.107462 -46.066634 -16.469357
LeftForeArm 12.057846 -0.000000 14.666048
LeftHand -19.226340 -0.000000 13.607823
LeftHandThumb1 -26.253704 0.000000 33.147579
Head -56.808288 9.038869 47.709444
620
root -1.691363 14.147186 -2.125793 42.522547 -15.836060 22.344461
RightUpLeg -165.088658 -64.278592 25.328226
RightLeg 109.627589 -0.000000 -0.000000
RightFoot -16.692255 21.068480 20.138960
RightToeBase 22.445624 -0.000000 -0.000000
LeftUpLeg -28.220184 25.464860 28.704065
LeftLeg 14.879877 -0.000000 -0.000000
LeftFoot -27.894486 5.236624 -17.480948
LeftToeBase 6.303632 -0.000000 -0.000000
Spine -37.480506 12.491783 33.909308
RightShoulder -17.268741 18.440898 -16.995980
RightArm -13.544860 -6.916375 51.260435
RightForeArm -25.703469 -0.000000 51.273006
RightHand 38.163171 0.000000 -54.489736
RightHandThumb1 -24.326973 -0.000000 -32.862282
LeftShoulder -22.297549 -24.689237 71.511957
LeftArm 75.079057 -46.048336 -16.382615
LeftForeArm 11.954243 -0.000000 14.740607
LeftHand -19.173070 -0.000000 13.621932
LeftHandThumb1 -26.253704 0.000000 33.147579
Head -56.806836 9.090362 47.717270
621
root -1.694653 14.143974 -2.124338 42.525836 -15.825727 22.333585
RightUpLeg -165.043451 -64.291733 25.282853
RightLeg 109.651478 -0.000000 -0.000000
RightFoot -16.689982 21.061201 20.195685
RightToeBase 22.483319 -0.000000 -0.000000
LeftUpLeg -28.219985 25.484370 28.715615
LeftLeg 14.881367 -0.000000 -0.000000
LeftFoot -27.900639 5.255757 -17.444164
LeftToeBase 6.314730 -0.000000 -0.000000
Spine -37.484015 12.489990 33.912390
RightShoulder -17.274688 18.436312 -16.982897
RightArm -13.562108 -6.949804 51.244917
RightForeArm -25.701355 -0.000000 51.303804
RightHand 38.164093 -0.000000 -54.412776
RightHandThumb1 -24.326973 -0.000000 -32.862282
LeftShoulder -22.291175 -24.707641 71.518016
LeftArm 75.050308 -46.027725 -16.265244
LeftForeArm 11.967659 -0.000000 14.739075
LeftHand -19.073446 -0.000000 13.588783
LeftHandThumb1 -26.253704 0.000000 33.147579
Head -56.793898 9.129586 47.720631
622
root -1.698105 14.140087 -2.122785 42.531514 -15.819620 22.328167
RightUpLeg -164.998028 -64.305978 25.226262
RightLeg 109.675218 -0.000000 -0.000000
RightFoot -16.692504 21.050428 20.209928
RightToeBase 22.393672 -0.000000 -0.000000
LeftUpLeg -28.210598 25.474535 28.731869
LeftLeg 14.872528 -0.000000 -0.000000
LeftFoot -27.915446 5.296394 -17.428769
LeftToeBase 6.351539 -0.000000 -0.000000
Spine -37.491817 12.484950 33.909441
RightShoulder -17.262029 18.414474 -16.954787
RightArm -13.579766 -6.955038 51.223225
RightForeArm -25.718940 0.000000 51.347803
RightHand 38.157096 0.000000 -54.411857
RightHandThumb1 -24.326973 -0.000000 -32.862282
LeftShoulder -22.276341 -24.707153 71.528256
LeftArm 75.059085 -46.038318 -16.234784
LeftForeArm 12.028014 0.000000 14.784122
LeftHand -18.984005 0.000000 13.449502
LeftHandThumb1 -26.253704 0.000000 33.147579
Head -56.766718 9.156493 47.721875
623
root -1.700974 14.136623 -2.121531 42.533925 -15.807670 22.335287
RightUpLeg -164.975897 -64.334393 25.189637
RightLeg 109.697593 -0.000000 -0.000000
RightFoot -16.721463 21.043764 20.235459
RightToeBase 22.471684 -0.000000 -0.000000
LeftUpLeg -28.213779 25.446094 28.740476
LeftLeg 14.874013 -0.000000 -0.000000
LeftFoot -27.931776 5.358700 -17.393855
LeftToeBase 6.387310 -0.000000 -0.000000
Spine -37.502651 12.475423 33.915908
RightShoulder -17.261808 18.396908 -16.959054
RightArm -13.584294 -6.952818 51.231809
RightForeArm -25.714340 -0.000000 51.381998
RightHand 38.194044 -0.000000 -54.402980
RightHandThumb1 -24.326973 -0.000000 -32.862282
LeftShoulder -22.246255 -24.719366 71.507653
LeftArm 75.042990 -46.036769 -16.152031
LeftForeArm 12.072637 -0.000000 14.796633
LeftHand -18.959009 -0.000000 13.423115
LeftHandThumb1 -26.253704 0.000000 33.147579
Head -56.749785 9.155750 47.698366
